<svg xmlns="http://www.w3.org/2000/svg" viewBox="0 0 167.67 153.55"><defs><style>.cls-1{fill:#f8c510;}.cls-2{fill:#ffef7e;}</style></defs><g id="Layer_2" data-name="Layer 2"><g id="Layer_1-2" data-name="Layer 1"><path class="cls-1" d="M19.13,2.29,166.54,1l.13,14.65L19.22,16.94Z"/><path class="cls-2" d="M165.55,2l.11,12.65L20.22,15.93q0-4.73-.07-9.47l0-3.18,5.3,0,19-.16,56.14-.49,65-.56m2-2L18.12,1.3q.06,8.32.11,16.65l149.35-1.3.09-.31L167.53,0Z"/><path class="cls-1" d="M1,152.53q.1-44.81.22-89.37l.12-44.55h.44c1.84,0,3.7,0,5.55-.06s3.68-.05,5.5-.05c1.44,0,2.73,0,3.92.05L16.42,152.4c-2.47.1-5,.11-7.31.11H4.88C3.59,152.51,2.3,152.51,1,152.53Z"/><path class="cls-2" d="M12.83,19.5c1.05,0,2,0,2.92,0l-.33,131.9c-2.13.07-4.27.08-6.3.08H2q.1-43.4.22-86.56l.11-45.35c1.68,0,3.37,0,5-.06,1.8,0,3.67-.05,5.48-.05m0-2c-3.65,0-7.38.11-11,.11H.34C.23,62.93.11,108.1,0,153.55c1.62,0,3.25,0,4.87,0H9.12c2.8,0,5.57,0,8.3-.15q.16-67.89.34-135.77c-1.62-.07-3.27-.09-4.93-.09Z"/></g></g></svg>