<svg xmlns="http://www.w3.org/2000/svg" viewBox="0 0 167.34 153.96"><defs><style>.cls-1{fill:#f8c510;}.cls-2{fill:#ffef7e;}</style></defs><g id="Layer_2" data-name="Layer 2"><g id="Layer_1-2" data-name="Layer 1"><path class="cls-1" d="M1,138.3l147.44-1.65.13,14.65L1.17,153Z"/><path class="cls-2" d="M147.46,137.66q0,4.62.08,9.24l0,3.41H147l-7.27.08-25.06.28-67.84.76-44.62.5L2,139.29l145.44-1.63m2-2L.1,137.31l-.1.31L.18,154l149.41-1.67-.15-16.65Z"/><path class="cls-1" d="M154.38,135.07c-1.26,0-2.4,0-3.47,0q0-66.91,0-133.84c3.09-.13,6.3-.14,9.41-.14,2,0,4,0,6,0q0,44.06,0,87.88v46c-2,0-4,0-6,.07S156.35,135.07,154.38,135.07Z"/><path class="cls-2" d="M165.33,2q0,43.54,0,86.88v45c-1.67,0-3.37,0-5,.06-2,0-4,.06-5.94.06-.88,0-1.69,0-2.47,0q0-65.94,0-131.9c2.78-.09,5.63-.09,8.41-.1,1.64,0,3.32,0,5,0m2-2c-5.85.13-11.74-.06-17.41.23q0,67.89,0,135.77c1.47.06,3,.07,4.47.07,4,0,8-.13,12-.13h1c0-45.34,0-90.5,0-135.95Z"/></g></g></svg>