<svg xmlns="http://www.w3.org/2000/svg" viewBox="0 0 86.1 91.76"><defs><style>.cls-1{fill:#f8c510;}.cls-2{fill:#ffef7e;}</style></defs><g id="Layer_2" data-name="Layer 2"><g id="Layer_1-2" data-name="Layer 1"><path class="cls-1" d="M77.42,90.73s.32-77.53.33-80l7.35,0-.33,80Z"/><path class="cls-2" d="M78.74,11.75l4.21,0h1.14v1.52l0,9.29-.12,28.17c-.11,26-.15,35.5-.16,39l-5.35,0,.1-23.87c.16-37.62.21-50,.22-54.11m-2-2-.34,81.93.18,0,9.17,0,.34-82-9.35-.06Z"/><path class="cls-1" d="M1.08,8.56C1,7,1,5.4,1,3.84,1,2.89,1,2,1,1H75.31c0,1,0,1.9,0,2.85,0,1.56.06,3.16,0,4.7Z"/><path class="cls-2" d="M74.32,2c0,.63,0,1.25,0,1.86,0,1.22,0,2.47,0,3.69H2.06C2,6.35,2,5.12,2,3.84V2H74.32m2-2H0C.07,3.21,0,6.44.13,9.56H76.34c.11-3.09,0-6.37,0-9.55Z"/></g></g></svg>