<svg xmlns="http://www.w3.org/2000/svg" viewBox="0 0 86.31 91.85"><defs><style>.cls-1{fill:#f8c510;}.cls-2{fill:#ffef7e;}</style></defs><g id="Layer_2" data-name="Layer 2"><g id="Layer_1-2" data-name="Layer 1"><polygon class="cls-1" points="1.01 1.08 8.36 1.01 9.17 80.98 1.83 81.04 1.01 1.08"/><path class="cls-2" d="M7.37,2c0,2.43.08,7.89.2,20.14.22,20.83.51,50,.59,57.83L3.94,80H2.81c-.11-11.26-.68-66.7-.79-78L7.37,2m1.8-2L0,.09l.83,82L10.18,82,9.35.05,9.17,0Z"/><path class="cls-1" d="M11,90.79c0-1,0-1.9,0-2.85,0-1.56-.05-3.16,0-4.7l74.28.05c.06,1.55,0,3.15,0,4.71,0,1,0,1.89,0,2.84C69.24,90.84,11,90.79,11,90.79Z"/><path class="cls-2" d="M11.94,84.24l72.32.05c0,1.21,0,2.44,0,3.72v1.83l-48.08,0L12,89.79c0-.62,0-1.25,0-1.86,0-1.22,0-2.47,0-3.69m-2-2c-.12,3.09,0,6.38,0,9.56l76.31.06c-.07-3.21,0-6.45-.12-9.56q-38.1,0-76.21-.06Z"/></g></g></svg>