<svg xmlns="http://www.w3.org/2000/svg" viewBox="0 0 42.41 39.93"><g id="Layer_2" data-name="Layer 2"><g id="Layer_1-2" data-name="Layer 1"><path d="M42.41,21.54c-.07.65-.12,1.3-.23,1.94a19.7,19.7,0,0,1-2.44,6.9,21.16,21.16,0,0,1-2.14,3,20,20,0,0,1-4.91,4.25A22.52,22.52,0,0,1,28,39.8c-1,.32-1.54-.1-1.54-1.11,0-1.73,0-3.47,0-5.2a12.1,12.1,0,0,0-.1-1.47A4.56,4.56,0,0,0,25.1,29.5c.83-.15,1.65-.26,2.45-.45a9.39,9.39,0,0,0,5.15-2.91,7.79,7.79,0,0,0,1.64-3.53,11.75,11.75,0,0,0,.09-5.34A7.65,7.65,0,0,0,33,14.42L33,14.36c-.66-.35-.36-.85-.2-1.32a4.64,4.64,0,0,0,0-3,12.27,12.27,0,0,1-.35-1.18.55.55,0,0,0-.73-.47,8.06,8.06,0,0,0-1.7.38c-1.09.48-2.13,1.06-3.21,1.58a1,1,0,0,1-.62.11,22.29,22.29,0,0,0-5.58-.59,20.43,20.43,0,0,0-4.34.59.81.81,0,0,1-.71-.11,14.62,14.62,0,0,0-4.28-1.88l-.12,0c-1-.19-1.17-.08-1.45.89a7,7,0,0,0,0,4.32.62.62,0,0,1-.13.48,8.89,8.89,0,0,0-1.61,3,8.78,8.78,0,0,0-.16,4.52A9.77,9.77,0,0,0,9.54,26a8,8,0,0,0,2.93,2.26,15.31,15.31,0,0,0,4.87,1.23,2.84,2.84,0,0,0-.59.63,11.26,11.26,0,0,0-.68,1.69.72.72,0,0,1-.52.6,5.34,5.34,0,0,1-3.59.08,3.42,3.42,0,0,1-1.15-.77,10.22,10.22,0,0,1-1.17-1.44A4.26,4.26,0,0,0,6.8,28.46a2.73,2.73,0,0,0-1,.13c-.17,0-.26.16-.06.33.36.29.69.62,1,.91a6.31,6.31,0,0,1,1.92,2.54,4,4,0,0,0,1.44,2,5.37,5.37,0,0,0,2.83.83c1,0,2,0,3,0a1.17,1.17,0,0,1,0,.2c0,1.08,0,2.16,0,3.24s-.66,1.52-1.61,1.15a39.35,39.35,0,0,1-3.64-1.6,16.46,16.46,0,0,1-4.86-3.7c-.77-.86-1.47-1.77-2.2-2.66a16.72,16.72,0,0,1-2.4-4.51,18.58,18.58,0,0,1-1.1-9.12,19.88,19.88,0,0,1,.83-4A17.75,17.75,0,0,1,3.3,9.43,23.76,23.76,0,0,1,5.42,6.75a21.07,21.07,0,0,1,5.37-4.14A21.53,21.53,0,0,1,23.38.11,20.71,20.71,0,0,1,30.28,2a19,19,0,0,1,4.51,2.82A26.3,26.3,0,0,1,37.2,7.08a33.15,33.15,0,0,1,2.09,2.75,16.1,16.1,0,0,1,2.46,5.74c.26,1.07.4,2.16.59,3.23,0,.12,0,.23.07.35Z"/></g></g></svg>